<svg width="305" height="75" viewBox="0 0 305 75" fill="none" xmlns="http://www.w3.org/2000/svg">
<g filter="url(#filter0_d_23_20954)">
<rect x="4" width="297" height="67" rx="9" fill="white"/>
</g>
<path d="M106.012 42H102.297L102.32 39.2578H106.012C106.934 39.2578 107.711 39.0508 108.344 38.6367C108.977 38.2148 109.453 37.6016 109.773 36.7969C110.102 35.9922 110.266 35.0195 110.266 33.8789V33.0469C110.266 32.1719 110.172 31.4023 109.984 30.7383C109.805 30.0742 109.535 29.5156 109.176 29.0625C108.816 28.6094 108.375 28.2695 107.852 28.043C107.328 27.8086 106.727 27.6914 106.047 27.6914H102.227V24.9375H106.047C107.188 24.9375 108.23 25.1328 109.176 25.5234C110.129 25.9062 110.953 26.457 111.648 27.1758C112.344 27.8945 112.879 28.7539 113.254 29.7539C113.637 30.7461 113.828 31.8516 113.828 33.0703V33.8789C113.828 35.0898 113.637 36.1953 113.254 37.1953C112.879 38.1953 112.344 39.0547 111.648 39.7734C110.961 40.4844 110.137 41.0352 109.176 41.4258C108.223 41.8086 107.168 42 106.012 42ZM104.289 24.9375V42H100.773V24.9375H104.289ZM115.633 35.7891V35.543C115.633 34.6133 115.766 33.7578 116.031 32.9766C116.297 32.1875 116.684 31.5039 117.191 30.9258C117.699 30.3477 118.324 29.8984 119.066 29.5781C119.809 29.25 120.66 29.0859 121.621 29.0859C122.582 29.0859 123.438 29.25 124.188 29.5781C124.938 29.8984 125.566 30.3477 126.074 30.9258C126.59 31.5039 126.98 32.1875 127.246 32.9766C127.512 33.7578 127.645 34.6133 127.645 35.543V35.7891C127.645 36.7109 127.512 37.5664 127.246 38.3555C126.98 39.1367 126.59 39.8203 126.074 40.4062C125.566 40.9844 124.941 41.4336 124.199 41.7539C123.457 42.0742 122.605 42.2344 121.645 42.2344C120.684 42.2344 119.828 42.0742 119.078 41.7539C118.336 41.4336 117.707 40.9844 117.191 40.4062C116.684 39.8203 116.297 39.1367 116.031 38.3555C115.766 37.5664 115.633 36.7109 115.633 35.7891ZM119.008 35.543V35.7891C119.008 36.3203 119.055 36.8164 119.148 37.2773C119.242 37.7383 119.391 38.1445 119.594 38.4961C119.805 38.8398 120.078 39.1094 120.414 39.3047C120.75 39.5 121.16 39.5977 121.645 39.5977C122.113 39.5977 122.516 39.5 122.852 39.3047C123.188 39.1094 123.457 38.8398 123.66 38.4961C123.863 38.1445 124.012 37.7383 124.105 37.2773C124.207 36.8164 124.258 36.3203 124.258 35.7891V35.543C124.258 35.0273 124.207 34.543 124.105 34.0898C124.012 33.6289 123.859 33.2227 123.648 32.8711C123.445 32.5117 123.176 32.2305 122.84 32.0273C122.504 31.8242 122.098 31.7227 121.621 31.7227C121.145 31.7227 120.738 31.8242 120.402 32.0273C120.074 32.2305 119.805 32.5117 119.594 32.8711C119.391 33.2227 119.242 33.6289 119.148 34.0898C119.055 34.543 119.008 35.0273 119.008 35.543ZM133.34 38.7188L135.977 29.3203H138.121L137.43 33.0117L134.793 42H133L133.34 38.7188ZM132.004 29.3203L133.891 38.707L134.066 42H131.957L128.746 29.3203H132.004ZM140.535 38.5547L142.375 29.3203H145.645L142.434 42H140.336L140.535 38.5547ZM138.414 29.3203L141.039 38.6484L141.402 42H139.598L136.961 33.0234L136.293 29.3203H138.414ZM150.648 32.0273V42H147.273V29.3203H150.438L150.648 32.0273ZM150.156 35.2148H149.242C149.242 34.2773 149.363 33.4336 149.605 32.6836C149.848 31.9258 150.188 31.2812 150.625 30.75C151.062 30.2109 151.582 29.8008 152.184 29.5195C152.793 29.2305 153.473 29.0859 154.223 29.0859C154.816 29.0859 155.359 29.1719 155.852 29.3438C156.344 29.5156 156.766 29.7891 157.117 30.1641C157.477 30.5391 157.75 31.0352 157.938 31.6523C158.133 32.2695 158.23 33.0234 158.23 33.9141V42H154.832V33.9023C154.832 33.3398 154.754 32.9023 154.598 32.5898C154.441 32.2773 154.211 32.0586 153.906 31.9336C153.609 31.8008 153.242 31.7344 152.805 31.7344C152.352 31.7344 151.957 31.8242 151.621 32.0039C151.293 32.1836 151.02 32.4336 150.801 32.7539C150.59 33.0664 150.43 33.4336 150.32 33.8555C150.211 34.2773 150.156 34.7305 150.156 35.2148ZM164.359 24V42H160.973V24H164.359ZM166.609 35.7891V35.543C166.609 34.6133 166.742 33.7578 167.008 32.9766C167.273 32.1875 167.66 31.5039 168.168 30.9258C168.676 30.3477 169.301 29.8984 170.043 29.5781C170.785 29.25 171.637 29.0859 172.598 29.0859C173.559 29.0859 174.414 29.25 175.164 29.5781C175.914 29.8984 176.543 30.3477 177.051 30.9258C177.566 31.5039 177.957 32.1875 178.223 32.9766C178.488 33.7578 178.621 34.6133 178.621 35.543V35.7891C178.621 36.7109 178.488 37.5664 178.223 38.3555C177.957 39.1367 177.566 39.8203 177.051 40.4062C176.543 40.9844 175.918 41.4336 175.176 41.7539C174.434 42.0742 173.582 42.2344 172.621 42.2344C171.66 42.2344 170.805 42.0742 170.055 41.7539C169.312 41.4336 168.684 40.9844 168.168 40.4062C167.66 39.8203 167.273 39.1367 167.008 38.3555C166.742 37.5664 166.609 36.7109 166.609 35.7891ZM169.984 35.543V35.7891C169.984 36.3203 170.031 36.8164 170.125 37.2773C170.219 37.7383 170.367 38.1445 170.57 38.4961C170.781 38.8398 171.055 39.1094 171.391 39.3047C171.727 39.5 172.137 39.5977 172.621 39.5977C173.09 39.5977 173.492 39.5 173.828 39.3047C174.164 39.1094 174.434 38.8398 174.637 38.4961C174.84 38.1445 174.988 37.7383 175.082 37.2773C175.184 36.8164 175.234 36.3203 175.234 35.7891V35.543C175.234 35.0273 175.184 34.543 175.082 34.0898C174.988 33.6289 174.836 33.2227 174.625 32.8711C174.422 32.5117 174.152 32.2305 173.816 32.0273C173.48 31.8242 173.074 31.7227 172.598 31.7227C172.121 31.7227 171.715 31.8242 171.379 32.0273C171.051 32.2305 170.781 32.5117 170.57 32.8711C170.367 33.2227 170.219 33.6289 170.125 34.0898C170.031 34.543 169.984 35.0273 169.984 35.543ZM187.539 39.1406V33.4922C187.539 33.0859 187.473 32.7383 187.34 32.4492C187.207 32.1523 187 31.9219 186.719 31.7578C186.445 31.5938 186.09 31.5117 185.652 31.5117C185.277 31.5117 184.953 31.5781 184.68 31.7109C184.406 31.8359 184.195 32.0195 184.047 32.2617C183.898 32.4961 183.824 32.7734 183.824 33.0938H180.449C180.449 32.5547 180.574 32.043 180.824 31.5586C181.074 31.0742 181.438 30.6484 181.914 30.2812C182.391 29.9062 182.957 29.6133 183.613 29.4023C184.277 29.1914 185.02 29.0859 185.84 29.0859C186.824 29.0859 187.699 29.25 188.465 29.5781C189.23 29.9062 189.832 30.3984 190.27 31.0547C190.715 31.7109 190.938 32.5312 190.938 33.5156V38.9414C190.938 39.6367 190.98 40.207 191.066 40.6523C191.152 41.0898 191.277 41.4727 191.441 41.8008V42H188.031C187.867 41.6562 187.742 41.2266 187.656 40.7109C187.578 40.1875 187.539 39.6641 187.539 39.1406ZM187.984 34.2773L188.008 36.1875H186.121C185.676 36.1875 185.289 36.2383 184.961 36.3398C184.633 36.4414 184.363 36.5859 184.152 36.7734C183.941 36.9531 183.785 37.1641 183.684 37.4062C183.59 37.6484 183.543 37.9141 183.543 38.2031C183.543 38.4922 183.609 38.7539 183.742 38.9883C183.875 39.2148 184.066 39.3945 184.316 39.5273C184.566 39.6523 184.859 39.7148 185.195 39.7148C185.703 39.7148 186.145 39.6133 186.52 39.4102C186.895 39.207 187.184 38.957 187.387 38.6602C187.598 38.3633 187.707 38.082 187.715 37.8164L188.605 39.2461C188.48 39.5664 188.309 39.8984 188.09 40.2422C187.879 40.5859 187.609 40.9102 187.281 41.2148C186.953 41.5117 186.559 41.7578 186.098 41.9531C185.637 42.1406 185.09 42.2344 184.457 42.2344C183.652 42.2344 182.922 42.0742 182.266 41.7539C181.617 41.4258 181.102 40.9766 180.719 40.4062C180.344 39.8281 180.156 39.1719 180.156 38.4375C180.156 37.7734 180.281 37.1836 180.531 36.668C180.781 36.1523 181.148 35.7188 181.633 35.3672C182.125 35.0078 182.738 34.7383 183.473 34.5586C184.207 34.3711 185.059 34.2773 186.027 34.2773H187.984ZM201.027 39.2344V24H204.426V42H201.367L201.027 39.2344ZM193.012 35.8125V35.5664C193.012 34.5977 193.121 33.7188 193.34 32.9297C193.559 32.1328 193.879 31.4492 194.301 30.8789C194.723 30.3086 195.242 29.8672 195.859 29.5547C196.477 29.2422 197.18 29.0859 197.969 29.0859C198.711 29.0859 199.359 29.2422 199.914 29.5547C200.477 29.8672 200.953 30.3125 201.344 30.8906C201.742 31.4609 202.062 32.1367 202.305 32.918C202.547 33.6914 202.723 34.5391 202.832 35.4609V36C202.723 36.8828 202.547 37.7031 202.305 38.4609C202.062 39.2188 201.742 39.8828 201.344 40.4531C200.953 41.0156 200.477 41.4531 199.914 41.7656C199.352 42.0781 198.695 42.2344 197.945 42.2344C197.156 42.2344 196.453 42.0742 195.836 41.7539C195.227 41.4336 194.711 40.9844 194.289 40.4062C193.875 39.8281 193.559 39.1484 193.34 38.3672C193.121 37.5859 193.012 36.7344 193.012 35.8125ZM196.387 35.5664V35.8125C196.387 36.3359 196.426 36.8242 196.504 37.2773C196.59 37.7305 196.727 38.1328 196.914 38.4844C197.109 38.8281 197.359 39.0977 197.664 39.293C197.977 39.4805 198.355 39.5742 198.801 39.5742C199.379 39.5742 199.855 39.4453 200.23 39.1875C200.605 38.9219 200.891 38.5586 201.086 38.0977C201.289 37.6367 201.406 37.1055 201.438 36.5039V34.9688C201.414 34.4766 201.344 34.0352 201.227 33.6445C201.117 33.2461 200.953 32.9062 200.734 32.625C200.523 32.3438 200.258 32.125 199.938 31.9688C199.625 31.8125 199.254 31.7344 198.824 31.7344C198.387 31.7344 198.012 31.8359 197.699 32.0391C197.387 32.2344 197.133 32.5039 196.938 32.8477C196.75 33.1914 196.609 33.5977 196.516 34.0664C196.43 34.5273 196.387 35.0273 196.387 35.5664Z" fill="black"/>
<defs>
<filter id="filter0_d_23_20954" x="0" y="0" width="305" height="75" filterUnits="userSpaceOnUse" color-interpolation-filters="sRGB">
<feFlood flood-opacity="0" result="BackgroundImageFix"/>
<feColorMatrix in="SourceAlpha" type="matrix" values="0 0 0 0 0 0 0 0 0 0 0 0 0 0 0 0 0 0 127 0" result="hardAlpha"/>
<feOffset dy="4"/>
<feGaussianBlur stdDeviation="2"/>
<feComposite in2="hardAlpha" operator="out"/>
<feColorMatrix type="matrix" values="0 0 0 0 0 0 0 0 0 0 0 0 0 0 0 0 0 0 0.25 0"/>
<feBlend mode="normal" in2="BackgroundImageFix" result="effect1_dropShadow_23_20954"/>
<feBlend mode="normal" in="SourceGraphic" in2="effect1_dropShadow_23_20954" result="shape"/>
</filter>
</defs>
</svg>
